<svg width="1001" height="160" viewBox="0 0 1001 160" fill="none" xmlns="http://www.w3.org/2000/svg">
<g filter="url(#filter0_d_500_32)">
<circle cx="80" cy="60" r="50" fill="white"/>
</g>
<circle cx="380" cy="60" r="19.5" fill="white" stroke="#A2BDAA"/>
<circle cx="681" cy="60" r="19.5" fill="white" stroke="#A2BDAA"/>
<circle cx="981" cy="60" r="19.5" fill="white" stroke="#A2BDAA"/>
<g clip-path="url(#clip0_500_32)">
<path d="M105 72.0713L80 35L55 72.0713L80 85L105 72.0713Z" fill="#C9F87C"/>
<path d="M105 72.0713L80 35V85L105 72.0713Z" fill="#6BCD49"/>
<path d="M80 59.1426L55 72.0713L80 85L105 72.0713L80 59.1426Z" fill="#5EBA3F"/>
<path d="M80 59.1426V85L105 72.0713L80 59.1426Z" fill="#48962E"/>
</g>
<path d="M150 60H340" stroke="#A2BDAA" stroke-linecap="square" stroke-dasharray="10 10"/>
<path d="M420 60H641" stroke="#A2BDAA" stroke-linecap="square" stroke-dasharray="10 10"/>
<path d="M720 60H941" stroke="#A2BDAA" stroke-linecap="square" stroke-dasharray="10 10"/>
<defs>
<filter id="filter0_d_500_32" x="0" y="0" width="160" height="160" filterUnits="userSpaceOnUse" color-interpolation-filters="sRGB">
<feFlood flood-opacity="0" result="BackgroundImageFix"/>
<feColorMatrix in="SourceAlpha" type="matrix" values="0 0 0 0 0 0 0 0 0 0 0 0 0 0 0 0 0 0 127 0" result="hardAlpha"/>
<feOffset dy="20"/>
<feGaussianBlur stdDeviation="15"/>
<feColorMatrix type="matrix" values="0 0 0 0 0.462 0 0 0 0 0.6 0 0 0 0 0.45 0 0 0 0.05 0"/>
<feBlend mode="normal" in2="BackgroundImageFix" result="effect1_dropShadow_500_32"/>
<feBlend mode="normal" in="SourceGraphic" in2="effect1_dropShadow_500_32" result="shape"/>
</filter>
<clipPath id="clip0_500_32">
<rect width="50" height="50" fill="white" transform="translate(55 35)"/>
</clipPath>
</defs>
</svg>
