<svg width="1111" height="36" viewBox="0 0 1111 36" fill="none" xmlns="http://www.w3.org/2000/svg">
<g clip-path="url(#clip0_2_189)">
<path fill-rule="evenodd" clip-rule="evenodd" d="M39.3501 26.5065L40.8851 22.9395C42.5432 24.1794 44.7523 24.8239 46.9318 24.8239C48.5407 24.8239 49.5591 24.204 49.5591 23.2642C49.5345 20.637 39.9208 22.6935 39.847 16.1056C39.8224 12.76 42.7941 10.182 47.0056 10.182C49.5099 10.182 52.0093 10.8019 53.7952 12.2139L52.3586 15.8547C50.7251 14.8117 48.6932 14.0688 46.7596 14.0688C45.446 14.0688 44.5801 14.6887 44.5801 15.4808C44.6047 18.0589 54.2921 16.6468 54.3905 22.9395C54.3905 26.3589 51.4927 28.7648 47.3303 28.7648C44.2799 28.7599 41.4805 28.0416 39.3501 26.5065ZM98.2966 21.6505C97.5291 22.9887 96.0925 23.9038 94.4295 23.9038C91.9744 23.9038 89.9966 21.9211 89.9966 19.4709C89.9966 17.0208 91.9793 15.038 94.4295 15.038C96.0875 15.038 97.5291 15.9531 98.2966 17.2914L102.533 14.9396C100.948 12.1155 97.8981 10.182 94.4295 10.182C89.2979 10.182 85.1356 14.3443 85.1356 19.4758C85.1356 24.6074 89.2979 28.7697 94.4295 28.7697C97.9227 28.7697 100.948 26.8608 102.533 24.0121L98.2966 21.6505ZM56.5209 2.47232H61.8247V28.4155H56.5209V2.47232ZM104.614 2.47232V28.4155H109.918V20.632L116.21 28.4155H123L114.995 19.1708L122.405 10.546H115.91L109.913 17.7046V2.47232H104.614Z" fill="#A2BDAA"/>
<path d="M77.5835 21.6996C76.816 22.9641 75.2318 23.9038 73.4458 23.9038C70.9907 23.9038 69.0129 21.921 69.0129 19.4709C69.0129 17.0207 70.9957 15.038 73.4458 15.038C75.2318 15.038 76.816 16.0269 77.5835 17.3159V21.6996ZM77.5835 10.5509V12.6567C76.7176 11.1954 74.5627 10.177 72.3044 10.177C67.6451 10.177 63.9797 14.2901 63.9797 19.4463C63.9797 24.6024 67.6451 28.7648 72.3044 28.7648C74.5577 28.7648 76.7127 27.7512 77.5835 26.2851V28.3908H82.8873V10.5509H77.5835Z" fill="#A2BDAA"/>
<path fill-rule="evenodd" clip-rule="evenodd" d="M6.56826 21.6751C6.56826 23.4857 5.10702 24.9469 3.29646 24.9469C1.4859 24.9469 0.0246582 23.4807 0.0246582 21.6751C0.0246582 19.8695 1.4859 18.4033 3.29646 18.4033H6.56826V21.6751ZM8.2017 21.6751C8.2017 19.8645 9.66294 18.4033 11.4735 18.4033C13.2841 18.4033 14.7453 19.8645 14.7453 21.6751V29.8521C14.7453 31.6627 13.2841 33.124 11.4735 33.124C9.66294 33.124 8.2017 31.6627 8.2017 29.8521V21.6751Z" fill="#A2BDAA"/>
<path fill-rule="evenodd" clip-rule="evenodd" d="M11.4734 8.5436C9.66288 8.5436 8.20164 7.08236 8.20164 5.2718C8.20164 3.46124 9.66288 2 11.4734 2C13.284 2 14.7452 3.46124 14.7452 5.2718V8.5436H11.4734ZM11.4734 10.2016C13.284 10.2016 14.7452 11.6629 14.7452 13.4734C14.7452 15.284 13.284 16.7452 11.4734 16.7452H3.2718C1.46124 16.7452 0 15.2791 0 13.4734C0 11.6678 1.46124 10.2016 3.2718 10.2016H11.4734Z" fill="#A2BDAA"/>
<path fill-rule="evenodd" clip-rule="evenodd" d="M24.5804 13.4734C24.5804 11.6629 26.0416 10.2016 27.8522 10.2016C29.6627 10.2016 31.124 11.6629 31.124 13.4734C31.124 15.284 29.6627 16.7452 27.8522 16.7452H24.5804V13.4734ZM22.9469 13.4734C22.9469 15.284 21.4857 16.7452 19.6751 16.7452C17.8646 16.7452 16.4033 15.284 16.4033 13.4734V5.2718C16.4033 3.46124 17.8646 2 19.6751 2C21.4857 2 22.9469 3.46124 22.9469 5.2718V13.4734Z" fill="#A2BDAA"/>
<path fill-rule="evenodd" clip-rule="evenodd" d="M19.6751 26.5803C21.4857 26.5803 22.9469 28.0416 22.9469 29.8521C22.9469 31.6627 21.4857 33.124 19.6751 33.124C17.8646 33.124 16.4033 31.6627 16.4033 29.8521V26.5803H19.6751ZM19.6751 24.9469C17.8646 24.9469 16.4033 23.4857 16.4033 21.6751C16.4033 19.8645 17.8646 18.4033 19.6751 18.4033H27.8767C29.6873 18.4033 31.1485 19.8645 31.1485 21.6751C31.1485 23.4857 29.6873 24.9469 27.8767 24.9469H19.6751Z" fill="#A2BDAA"/>
</g>
<path fill-rule="evenodd" clip-rule="evenodd" d="M317.581 27.5257C310.807 32.5303 300.955 35.1967 292.457 35.1967C280.552 35.1967 269.878 30.8074 261.749 23.5056C261.134 22.9313 261.667 22.1519 262.447 22.6031C271.192 27.6898 281.988 30.7254 293.155 30.7254C300.667 30.7254 308.96 29.1665 316.596 25.9258C317.745 25.4746 318.689 26.7053 317.581 27.5257Z" fill="#A2BDAA"/>
<path fill-rule="evenodd" clip-rule="evenodd" d="M320.414 24.2849C319.552 23.1773 314.666 23.7516 312.49 24.0388C311.834 24.1208 311.71 23.5465 312.326 23.1363C316.226 20.3878 322.589 21.2083 323.328 22.1108C324.067 23.0132 323.123 29.4127 319.469 32.4483C318.895 32.8995 318.361 32.6534 318.607 32.0381C319.428 29.987 321.276 25.4335 320.414 24.2849Z" fill="#A2BDAA"/>
<path fill-rule="evenodd" clip-rule="evenodd" d="M312.614 3.85605V1.18963C312.614 0.779413 312.901 0.533279 313.271 0.533279H325.176C325.545 0.533279 325.874 0.820435 325.874 1.18963V3.44584C325.874 3.81503 325.545 4.3073 324.971 5.12774L318.813 13.9064C321.112 13.8654 323.534 14.1936 325.586 15.3422C326.038 15.5883 326.161 15.9985 326.202 16.3677V19.1982C326.202 19.6085 325.792 20.0597 325.34 19.8136C321.686 17.8855 316.801 17.6804 312.778 19.8546C312.367 20.0597 311.916 19.6495 311.916 19.2393V16.5318C311.916 16.1216 311.916 15.3832 312.367 14.7269L319.511 4.51241H313.312C312.942 4.51241 312.614 4.22525 312.614 3.85605ZM269.221 20.3879H265.608C265.28 20.3468 264.993 20.1007 264.952 19.7725V1.23066C264.952 0.86146 265.28 0.574304 265.649 0.574304H269.016C269.385 0.574304 269.632 0.861457 269.673 1.18963V3.60992H269.755C270.617 1.27167 272.3 0.164085 274.517 0.164085C276.775 0.164085 278.212 1.27167 279.197 3.60992C280.059 1.27167 282.071 0.164085 284.205 0.164085C285.724 0.164085 287.366 0.779413 288.393 2.21518C289.542 3.77401 289.296 6.03022 289.296 8.04029V19.7725C289.296 20.1417 288.967 20.4289 288.598 20.4289H285.026C284.657 20.3879 284.369 20.1007 284.369 19.7725V9.92729C284.369 9.14787 284.452 7.17882 284.287 6.44043C284 5.20977 283.22 4.84058 282.153 4.84058C281.291 4.84058 280.346 5.41489 279.977 6.35839C279.607 7.3019 279.648 8.86072 279.648 9.92729V19.7725C279.648 20.1417 279.32 20.4289 278.951 20.4289H275.338C274.968 20.3879 274.681 20.1007 274.681 19.7725V9.92729C274.681 7.87619 275.009 4.79955 272.464 4.79955C269.878 4.79955 269.96 7.75313 269.96 9.92729V19.7725C269.919 20.1007 269.632 20.3879 269.221 20.3879ZM336.137 0.164085C341.515 0.164085 344.429 4.75854 344.429 10.6247C344.429 16.2857 341.227 20.7981 336.137 20.7981C330.882 20.7981 328.008 16.2036 328.008 10.4606C327.967 4.67649 330.882 0.164085 336.137 0.164085ZM336.137 3.97912C333.468 3.97912 333.304 7.63007 333.304 9.88628C333.304 12.1425 333.263 16.9831 336.096 16.9831C338.887 16.9831 339.052 13.086 339.052 10.7067C339.052 9.14788 338.969 7.26088 338.518 5.78409C338.107 4.47139 337.286 3.97912 336.137 3.97912ZM351.367 20.3879H347.755C347.385 20.3468 347.098 20.0597 347.098 19.7315V1.14861C347.139 0.820433 347.426 0.533279 347.796 0.533279H351.162C351.491 0.533279 351.737 0.779418 351.819 1.06657V3.89708H351.901C352.927 1.35372 354.323 0.164085 356.827 0.164085C358.428 0.164085 360.029 0.738386 361.056 2.33824C362 3.81503 362 6.31737 362 8.12233V19.8136C361.959 20.1417 361.672 20.3879 361.302 20.3879H357.689C357.361 20.3468 357.074 20.1007 357.033 19.8136V9.72218C357.033 7.67108 357.279 4.71752 354.775 4.71752C353.913 4.71752 353.092 5.29183 352.681 6.19431C352.188 7.34292 352.106 8.4505 352.106 9.72218V19.7315C352.065 20.1007 351.737 20.3879 351.367 20.3879ZM303.131 11.5272C303.131 12.9219 303.172 14.1115 302.474 15.3832C301.899 16.4088 300.996 17.0241 299.969 17.0241C298.574 17.0241 297.753 15.9575 297.753 14.3987C297.753 11.322 300.503 10.7477 303.131 10.7477V11.5272ZM306.784 20.3469C306.538 20.552 306.209 20.593 305.922 20.4289C304.732 19.4444 304.485 18.9521 303.828 18.0086C301.858 20.0187 300.421 20.634 297.876 20.634C294.838 20.634 292.457 18.747 292.457 15.014C292.457 12.0604 294.058 10.0914 296.316 9.10685C298.286 8.24539 301.037 8.08131 303.131 7.83518V7.38394C303.131 6.52248 303.213 5.49693 302.679 4.75854C302.227 4.10219 301.406 3.81503 300.667 3.81503C299.272 3.81503 298.04 4.51241 297.753 5.9892C297.671 6.31737 297.465 6.64554 297.137 6.64554L293.647 6.27634C293.36 6.1943 293.032 5.98919 293.114 5.53795C293.935 1.27168 297.753 0 301.201 0C302.966 0 305.265 0.451238 306.661 1.80496C308.426 3.44584 308.262 5.66102 308.262 8.04029V13.6603C308.262 15.3422 308.96 16.0806 309.617 17.0241C309.863 17.3523 309.904 17.7625 309.617 17.9676C308.837 18.5829 307.523 19.7315 306.784 20.3469ZM255.715 11.5272C255.715 12.9219 255.756 14.1115 255.058 15.3832C254.483 16.4088 253.58 17.0241 252.554 17.0241C251.158 17.0241 250.337 15.9575 250.337 14.3987C250.337 11.322 253.087 10.7477 255.715 10.7477V11.5272ZM259.327 20.3469C259.081 20.552 258.753 20.593 258.465 20.4289C257.275 19.4444 257.028 18.9521 256.372 18.0086C254.401 20.0187 252.964 20.634 250.419 20.634C247.381 20.634 245 18.747 245 15.014C245 12.0604 246.601 10.0914 248.859 9.10685C250.829 8.24539 253.58 8.08131 255.674 7.83518V7.38394C255.674 6.52248 255.756 5.49693 255.222 4.75854C254.771 4.10219 253.949 3.81503 253.211 3.81503C251.815 3.81503 250.583 4.51241 250.296 5.9892C250.214 6.31737 250.008 6.64554 249.68 6.64554L246.191 6.27634C245.903 6.1943 245.575 5.98919 245.657 5.53795C246.478 1.27168 250.296 0 253.744 0C255.509 0 257.808 0.451238 259.204 1.80496C260.969 3.44584 260.805 5.66102 260.805 8.04029V13.6603C260.805 15.3422 261.503 16.0806 262.16 17.0241C262.406 17.3523 262.447 17.7625 262.16 17.9676C261.38 18.5829 260.066 19.7315 259.327 20.3469Z" fill="#A2BDAA"/>
<path d="M1038.22 17.4083C1036.98 17.4083 1036.09 17.8141 1035.19 18.2276V27.5834C1036.05 27.666 1036.55 27.666 1037.37 27.666C1040.35 27.666 1040.75 26.3055 1040.75 24.4061V19.9377C1040.75 18.5349 1040.29 17.4083 1038.22 17.4083ZM1018.48 16.8977C1016.42 16.8977 1015.95 18.0292 1015.95 19.4306V20.218H1021.01V19.4306C1021.01 18.0292 1020.54 16.8977 1018.48 16.8977ZM980.233 26.6357C980.233 27.7443 980.757 28.3202 981.912 28.3202C983.151 28.3202 983.885 27.9164 984.79 27.5015V25.2823H982.08C980.797 25.2823 980.233 25.5209 980.233 26.6357ZM1057.43 17.4083C1055.36 17.4083 1054.65 18.5349 1054.65 19.9377V25.0568C1054.65 26.463 1055.36 27.5931 1057.43 27.5931C1059.49 27.5931 1060.21 26.463 1060.21 25.0568V19.9377C1060.21 18.5349 1059.49 17.4083 1057.43 17.4083ZM970.108 32.3758H964.035V17.6865H961V12.625H964.035V9.58499C964.035 5.45515 965.748 3 970.616 3H974.669V8.06292H972.136C970.241 8.06292 970.116 8.77054 970.116 10.0907L970.108 12.6243H974.697L974.16 17.6858H970.108V32.3758ZM990.864 32.4139H985.802L985.584 31.1347C983.273 32.4139 981.21 32.6213 979.849 32.6213C976.137 32.6213 974.161 30.1433 974.161 26.7162C974.161 22.6731 976.467 21.2301 980.591 21.2301H984.79V20.356C984.79 18.2921 984.553 17.6865 981.377 17.6865H976.183L976.691 12.625H982.367C989.336 12.625 990.864 14.8248 990.864 20.3969V32.4139ZM1008.08 18.0576C1004.93 17.5179 1004.02 17.3993 1002.51 17.3993C999.785 17.3993 998.962 17.9994 998.962 20.3095V24.6794C998.962 26.9896 999.785 27.5924 1002.51 27.5924C1004.02 27.5924 1004.93 27.4717 1008.08 26.9299V31.8673C1005.32 32.4854 1003.52 32.6477 1002 32.6477C995.481 32.6477 992.889 29.2213 992.889 24.2715V20.7258C992.889 15.7718 995.481 12.3391 1002 12.3391C1003.52 12.3391 1005.32 12.5022 1008.08 13.1231V18.0576ZM1027.08 24.2715H1015.95V24.6794C1015.95 26.9896 1016.77 27.5924 1019.49 27.5924C1021.94 27.5924 1023.43 27.4717 1026.58 26.9299V31.8673C1023.54 32.4854 1021.96 32.6477 1018.99 32.6477C1012.47 32.6477 1009.87 29.2213 1009.87 24.2715V20.2173C1009.87 15.8862 1011.8 12.3391 1018.48 12.3391C1025.16 12.3391 1027.08 15.8453 1027.08 20.2173V24.2715ZM1046.83 24.3651C1046.83 29.1492 1045.46 32.6387 1037.17 32.6387C1034.17 32.6387 1032.42 32.3758 1029.11 31.8679V4.52068L1035.19 3.50851V13.0745C1036.5 12.5875 1038.2 12.3398 1039.74 12.3398C1045.81 12.3398 1046.83 15.06 1046.83 19.4313V24.3651H1046.83ZM1066.29 24.4692C1066.29 28.5963 1064.58 32.5991 1057.45 32.5991C1050.31 32.5991 1048.57 28.5963 1048.57 24.4692V20.4844C1048.57 16.3552 1050.31 12.3516 1057.45 12.3516C1064.58 12.3516 1066.29 16.3552 1066.29 20.4844V24.4692ZM1085.74 24.4692C1085.74 28.5963 1084.03 32.5991 1076.9 32.5991C1069.76 32.5991 1068.02 28.5963 1068.02 24.4692V20.4844C1068.02 16.3552 1069.76 12.3516 1076.9 12.3516C1084.03 12.3516 1085.74 16.3552 1085.74 20.4844V24.4692ZM1105.7 32.3758H1099.12L1093.55 23.0914V32.3758H1087.48V4.51999L1093.55 3.50782V21.4403L1099.12 12.625H1105.7L1099.62 22.2451L1105.7 32.3758ZM1076.88 17.4083C1074.81 17.4083 1074.1 18.5349 1074.1 19.9377V25.0568C1074.1 26.463 1074.81 27.5931 1076.88 27.5931C1078.94 27.5931 1079.67 26.463 1079.67 25.0568V19.9377C1079.67 18.5349 1078.94 17.4083 1076.88 17.4083ZM1109.16 28.9112C1110.19 28.9112 1111 29.7444 1111 30.785C1111 31.8416 1110.18 32.6657 1109.16 32.6657C1108.13 32.6657 1107.3 31.8416 1107.3 30.785C1107.3 29.7444 1108.13 28.9112 1109.16 28.9112H1109.16ZM1109.16 29.2026C1108.33 29.2026 1107.66 29.9109 1107.66 30.785C1107.66 31.6751 1108.33 32.3744 1109.16 32.3744C1109.99 32.3827 1110.66 31.6751 1110.66 30.7933C1110.66 29.9116 1109.99 29.2026 1109.16 29.2026H1109.16ZM1108.81 31.8756H1108.47V29.7846C1108.65 29.7604 1108.81 29.7361 1109.06 29.7361C1109.38 29.7361 1109.59 29.8027 1109.71 29.8936C1109.84 29.9858 1109.9 30.1267 1109.9 30.3258C1109.9 30.6019 1109.72 30.7677 1109.5 30.835V30.8509C1109.68 30.8849 1109.8 31.05 1109.85 31.3574C1109.9 31.6827 1109.95 31.8069 1109.98 31.8749H1109.63C1109.58 31.8069 1109.53 31.6161 1109.49 31.3407C1109.44 31.075 1109.3 30.9751 1109.04 30.9751H1108.81V31.8756H1108.81ZM1108.81 30.7184H1109.05C1109.32 30.7184 1109.55 30.6178 1109.55 30.3591C1109.55 30.1759 1109.42 29.9935 1109.05 29.9935C1108.94 29.9935 1108.86 30.0018 1108.81 30.0094V30.7184Z" fill="#A2BDAA"/>
<g clip-path="url(#clip1_2_189)">
<path d="M493 24.7643V2.47474H496.915V24.7642H493V24.7643V24.7643ZM506.938 8.59402C501.918 8.59402 498.444 12.4538 498.444 16.8718C498.444 21.8023 502.223 25.1992 506.977 25.1992C511.489 25.1992 515.404 21.8651 515.404 16.8611C515.404 12.6534 512.159 8.59409 506.938 8.59409V8.59402ZM506.892 12.3713C509.519 12.3713 511.453 14.4161 511.453 16.8859C511.453 19.5047 509.321 21.4148 506.963 21.4148C504.177 21.4148 502.423 19.2066 502.423 16.893C502.423 14.3571 504.403 12.3712 506.892 12.3712V12.3713ZM525.241 8.59402C520.221 8.59402 516.747 12.4538 516.747 16.8718C516.747 21.8023 520.526 25.1992 525.28 25.1992C529.792 25.1992 533.707 21.8651 533.707 16.8611C533.707 13.9145 532.431 12.6071 532.431 12.6071L533.516 12.2349V9.05723H527.955C527.955 9.05723 526.749 8.59402 525.241 8.59402ZM525.195 12.3713C527.822 12.3713 529.756 14.4161 529.756 16.8859C529.756 19.5047 527.624 21.4148 525.266 21.4148C522.48 21.4148 520.726 19.2066 520.726 16.893C520.726 14.3571 522.706 12.3712 525.195 12.3712V12.3713ZM529.728 25.8539C529.728 28.4725 527.596 30.397 525.238 30.397C522.452 30.397 520.692 28.1673 520.692 25.8539H516.719C516.719 30.7845 520.499 34.1811 525.253 34.1811C529.764 34.1811 533.679 30.8575 533.679 25.8539H529.728ZM535.275 24.7643V9.05723H539.19V24.7643H535.275ZM542.992 24.7643V12.5755H540.893V9.05723H542.992V4.23387H546.908V9.05723H549.064V12.5755H546.908V24.7643H542.992ZM539.817 4.59615C539.817 6.02807 538.657 7.18892 537.225 7.18892C535.793 7.18892 534.632 6.02799 534.632 4.59615C534.632 3.16416 535.793 2.0033 537.225 2.0033C538.657 2.0033 539.817 3.16416 539.817 4.59615ZM557.867 8.58343C552.823 8.58343 549.571 12.4451 549.571 17.0136C549.571 21.7347 552.834 25.2098 557.948 25.2098C562.719 25.2098 565.066 22.2305 565.066 22.2305L562.449 19.6096C562.449 19.6096 560.473 21.7412 557.998 21.7412C555.935 21.7412 554.286 20.5897 553.71 18.4783H565.91V17.4002C565.91 13.0982 563.42 8.58343 557.867 8.58343ZM557.743 12.0307C559.546 12.0307 561.391 12.9957 561.804 15.3006H553.604C553.928 13.6804 555.346 12.0307 557.743 12.0307ZM575.704 25.2119C570.646 25.2119 567.199 21.3593 567.199 16.8171C567.199 12.1295 571.094 8.5805 575.688 8.5805C580.128 8.5805 582.401 11.715 582.401 11.715L579.669 14.4341C579.669 14.4341 578.087 12.3898 575.669 12.3898C572.989 12.3898 571.156 14.4401 571.156 16.8772C571.156 19.4504 573.106 21.4249 575.639 21.4249C578.096 21.4249 579.666 19.384 579.666 19.384L582.424 22.1015C582.424 22.1015 580.174 25.212 575.704 25.212H575.704V25.2118V25.2119ZM583.849 24.7757V2.41808H587.764V10.6324C587.764 10.6324 589.264 8.5805 592.525 8.5805C596.625 8.5805 599 11.6282 599 15.5262V24.7756H595.084V16.118C595.084 13.4992 593.454 12.4127 591.648 12.4127C589.59 12.4127 587.764 13.5838 587.764 16.3205V24.7757H583.849Z" fill="#A2BDAA"/>
</g>
<path fill-rule="evenodd" clip-rule="evenodd" d="M749.218 2.52856H750.147C753.371 2.59502 756.542 3.82277 758.82 5.99626C757.979 6.80929 757.121 7.58909 756.297 8.40193C755.018 7.30707 753.476 6.46082 751.794 6.16219C749.306 5.6644 746.625 6.11235 744.54 7.45639C742.262 8.86649 740.72 11.2557 740.387 13.8107C740.02 16.3327 740.773 18.9874 742.508 20.9451C744.172 22.8532 746.713 24.0477 749.341 24.1307C751.794 24.2635 754.352 23.5499 756.139 21.924C757.541 20.7791 758.189 19.0372 758.4 17.3449C755.491 17.3449 752.583 17.3613 749.674 17.3449V13.927H761.921C762.552 17.5937 761.641 21.7249 758.698 24.3463C756.735 26.2046 754.019 27.2996 751.251 27.5154C748.57 27.7642 745.802 27.283 743.419 26.0552C740.563 24.6119 738.285 22.1728 737.164 19.3026C736.112 16.6645 736.095 13.678 737.076 11.0234C737.97 8.60108 739.687 6.46082 741.894 4.96766C744.014 3.49091 746.59 2.67788 749.218 2.52856Z" fill="#A2BDAA"/>
<path fill-rule="evenodd" clip-rule="evenodd" d="M819.48 3.39142H823.229V27.084C821.985 27.084 820.724 27.1004 819.48 27.0674C819.497 19.1865 819.48 11.289 819.48 3.39142Z" fill="#A2BDAA"/>
<path fill-rule="evenodd" clip-rule="evenodd" d="M770.262 11.6042C772.575 11.1893 775.08 11.6538 776.99 12.9646C778.725 14.126 779.934 15.9512 780.302 17.9421C780.775 20.2483 780.179 22.7701 778.602 24.5953C776.903 26.6359 774.117 27.7309 771.401 27.565C768.913 27.4323 766.495 26.2544 765.023 24.3297C763.359 22.206 762.956 19.286 763.867 16.7972C764.778 14.126 767.353 12.0854 770.262 11.6042ZM770.788 14.7564C769.841 14.9888 768.965 15.503 768.335 16.2332C766.635 18.1577 766.74 21.2935 768.615 23.0853C769.684 24.1141 771.296 24.5953 772.785 24.3131C774.169 24.0809 775.378 23.2016 776.044 22.0401C777.201 20.0658 776.868 17.3449 775.098 15.8019C773.959 14.8063 772.295 14.3916 770.788 14.7564Z" fill="#A2BDAA"/>
<path fill-rule="evenodd" clip-rule="evenodd" d="M788.835 11.6042C791.48 11.123 794.371 11.8198 796.351 13.5785C799.575 16.3161 799.926 21.4428 797.175 24.5953C795.51 26.5862 792.812 27.6813 790.149 27.565C787.608 27.4987 785.102 26.3042 783.596 24.3297C781.896 22.1562 781.528 19.1699 782.492 16.6313C783.455 14.0431 785.979 12.0688 788.835 11.6042ZM789.36 14.7565C788.414 14.9888 787.538 15.503 786.907 16.2166C785.225 18.1081 785.295 21.1941 787.1 23.0025C788.169 24.0809 789.833 24.6119 791.375 24.3131C792.742 24.0643 793.968 23.2016 794.634 22.0401C795.773 20.0492 795.44 17.3282 793.653 15.7853C792.514 14.7897 790.85 14.3916 789.36 14.7565Z" fill="#A2BDAA"/>
<path fill-rule="evenodd" clip-rule="evenodd" d="M804.586 12.5664C806.601 11.3718 809.282 11.04 811.455 12.0688C812.138 12.3508 812.699 12.832 813.242 13.3131L813.26 11.9361L816.799 11.9525V26.5862C816.781 28.7928 816.186 31.1322 814.503 32.7416C812.664 34.5168 809.843 35.0644 807.302 34.6994C804.586 34.3179 802.221 32.443 801.17 30.0704C802.221 29.5892 803.325 29.2077 804.411 28.7597C805.024 30.1202 806.268 31.2815 807.828 31.5471C809.387 31.8125 811.192 31.4474 812.208 30.2197C813.294 28.9587 813.294 27.2334 813.242 25.6904C812.436 26.4369 811.507 27.1004 810.386 27.3494C807.95 27.9965 805.27 27.2001 803.395 25.6405C801.503 24.0809 800.381 21.6752 800.486 19.286C800.539 16.5815 802.151 13.9767 804.586 12.5664ZM808.213 14.6902C807.144 14.8561 806.146 15.4202 805.462 16.2C803.815 18.0582 803.815 21.0281 805.48 22.8531C806.426 23.9316 807.95 24.5289 809.422 24.3795C810.806 24.2468 812.086 23.4172 812.769 22.2725C813.925 20.3312 813.733 17.6931 812.173 16.0008C811.209 14.9556 809.668 14.4412 808.213 14.6902Z" fill="#A2BDAA"/>
<path fill-rule="evenodd" clip-rule="evenodd" d="M827.732 13.4126C829.835 11.5544 833.076 10.9239 835.775 11.9028C838.333 12.8154 839.962 15.1215 840.786 17.4942C836.984 18.9873 833.199 20.4639 829.397 21.9573C829.923 22.903 830.729 23.7657 831.815 24.1141C833.339 24.6283 835.161 24.446 836.441 23.4836C836.949 23.1186 837.352 22.6374 837.737 22.1728L840.628 23.9978C839.261 25.9391 836.966 27.2996 834.496 27.5154C831.762 27.8306 828.854 26.835 827.084 24.8109C824.175 21.6254 824.456 16.2828 827.732 13.4126ZM829.607 16.482C829.011 17.295 828.766 18.2904 828.784 19.2694C831.324 18.274 833.865 17.2784 836.405 16.2664C835.985 15.3373 834.969 14.7731 833.935 14.6238C832.27 14.3417 830.536 15.1878 829.607 16.482Z" fill="#A2BDAA"/>
<defs>
<clipPath id="clip0_2_189">
<rect width="123" height="31.1239" fill="white" transform="translate(0 2)"/>
</clipPath>
<clipPath id="clip1_2_189">
<rect width="106" height="32.1816" fill="white" transform="translate(493 2)"/>
</clipPath>
</defs>
</svg>
